
Plot:

House, M.D. volgt de praktijken van dokter Gregory House, een briljante, maar verbitterde arts. Hij drijft zijn team van jonge dokters tot het uiterste om achter de oorzaken van een patiënt z'n ziekte te komen, zet zijn vriendschap met collega Wilson regelmatig op het spel en drijft zijn baas Cuddy tot wanhoop. Maar aan het eind van de dag red hij meestal het leven van een patiënt die anderen opgegeven zouden hebben. 


Vertaling en andere aanpassingen:
Spooky 666



Seizoen 8 Aflevering 2: Transplant


A surprising visitor makes House an offer he can't refuse by giving him the opportunity to help the Princeton Plainsboro team treat a unique patient in order to save the life of an organ recipient being treated by Wilson. Although House finds himself back on familiar ground, he quickly realizes that much has changed since he left, and he is forced to work on the case with smart yet timid resident Dr. Chi Park. After several inconclusive treatments and with time running out, House and Dr. Park are left with one last option to examine the patient's medical history that could compromise House's conditional agreement with the hospital. Meanwhile, House makes an effort to reconnect with Wilson despite a cold reception.


INFO;


Video
ID                                       : 0
Format                                   : MPEG-4 Visual
Format profile                           : Advanced Simple@L5
Format settings, BVOP                    : 1
Format settings, QPel                    : No
Format settings, GMC                     : No warppoints
Format settings, Matrix                  : Default (H.263)
Muxing mode                              : Packed bitstream
Codec ID                                 : XVID
Codec ID/Hint                            : XviD
Duration                                 : 43mn 3s
Bit rate                                 : 967 Kbps
Width                                    : 624 pixels
Height                                   : 352 pixels
Display aspect ratio                     : 16:9
Frame rate                               : 23.976 fps
Color space                              : YUV
Chroma subsampling                       : 4:2:0
Bit depth                                : 8 bits
Scan type                                : Progressive
Compression mode                         : Lossy
Bits/(Pixel*Frame)                       : 0.184
Stream size                              : 298 MiB (85%)
Writing library                          : XviD 64

Audio
ID                                       : 1
Format                                   : MPEG Audio
Format version                           : Version 1
Format profile                           : Layer 3
Mode                                     : Joint stereo
Mode extension                           : MS Stereo
Codec ID                                 : 55
Codec ID/Hint                            : MP3
Duration                                 : 43mn 3s
Bit rate mode                            : Variable
Bit rate                                 : 154 Kbps
Channel(s)                               : 2 channels
Sampling rate                            : 48.0 KHz
Compression mode                         : Lossy
Stream size                              : 47.3 MiB (14%)
Alignment                                : Aligned on interleaves
Interleave, duration                     : 24 ms (0.58 video frame)
Interleave, preload duration             : 494 ms


 
http://www.imdb.com/title/tt0412142/



DutchReleaseteam = Hardcoded Dutch Subs